<svg width="50" height="50" viewBox="0 0 50 50" fill="none" xmlns="http://www.w3.org/2000/svg">
<circle cx="25" cy="25" r="25" fill="#FF4757" fill-opacity="0.1"/>
<path d="M13.5419 19.3636H15.2237L19.1783 29.0227H19.3146L23.2692 19.3636H24.951V31H23.6328V22.1591H23.5192L19.8828 31H18.6101L14.9737 22.1591H14.8601V31H13.5419V19.3636ZM31.3672 31H27.7763V19.3636H31.5263C32.6551 19.3636 33.621 19.5966 34.424 20.0625C35.227 20.5246 35.8426 21.1894 36.2706 22.0568C36.6986 22.9205 36.9126 23.9545 36.9126 25.1591C36.9126 26.3712 36.6967 27.4148 36.2649 28.2898C35.8331 29.161 35.2043 29.8314 34.3786 30.3011C33.5528 30.767 32.549 31 31.3672 31ZM29.1854 29.75H31.2763C32.2384 29.75 33.0357 29.5644 33.6683 29.1932C34.3009 28.822 34.7725 28.2936 35.0831 27.608C35.3937 26.9223 35.549 26.1061 35.549 25.1591C35.549 24.2197 35.3956 23.411 35.0888 22.733C34.782 22.0511 34.3236 21.5284 33.7138 21.1648C33.1039 20.7973 32.3445 20.6136 31.4354 20.6136H29.1854V29.75Z" fill="#FF4757"/>
</svg>
