<svg width="2513" height="1063" viewBox="0 0 2513 1063" fill="none" xmlns="http://www.w3.org/2000/svg">
  <g filter="url(#filter0_f_236_3732)">
    <path
      d="M187 318C609.537 446.166 843.508 851.304 1262.5 875.569C1693.78 855.484 1903.79 437.91 2326 340.63V556.212C1917.07 442.821 1702.72 891.811 1262.5 875.569C831.667 877.435 595.459 487.559 187 609.214V318Z"
      fill="#FF0017"
    />
  </g>
  <g filter="url(#filter1_f_236_3732)">
    <path
      d="M187 187C609.537 315.166 843.508 720.304 1262.5 744.569C1693.78 724.484 1903.79 306.91 2326 209.63V425.212C1917.07 311.821 1702.72 760.811 1262.5 744.569C831.667 746.435 595.459 356.559 187 478.214V187Z"
      fill="#FF0017"
    />
  </g>
  <g filter="url(#filter2_f_236_3732)">
    <path
      d="M187 450C609.537 530.85 843.508 786.421 1262.5 801.728C1693.78 789.058 1903.79 525.642 2326 464.276V600.27C1917.07 528.74 1702.72 811.974 1262.5 801.728C831.667 802.905 595.459 556.962 187 633.705V450Z"
      fill="white"
    />
  </g>
  <g filter="url(#filter3_f_236_3732)">
    <path
      d="M187 319C609.537 399.85 843.508 655.421 1262.5 670.728C1693.78 658.058 1903.79 394.642 2326 333.276V469.27C1917.07 397.74 1702.72 680.974 1262.5 670.728C831.667 671.905 595.459 425.962 187 502.705V319Z"
      fill="white"
    />
  </g>
  <defs>
    <filter
      id="filter0_f_236_3732"
      x="0"
      y="131"
      width="2513"
      height="932"
      filterUnits="userSpaceOnUse"
      color-interpolation-filters="sRGB"
    >
      <feFlood flood-opacity="0" result="BackgroundImageFix" />
      <feBlend mode="normal" in="SourceGraphic" in2="BackgroundImageFix" result="shape" />
      <feGaussianBlur stdDeviation="93.5" result="effect1_foregroundBlur_236_3732" />
    </filter>
    <filter
      id="filter1_f_236_3732"
      x="0"
      y="0"
      width="2513"
      height="932"
      filterUnits="userSpaceOnUse"
      color-interpolation-filters="sRGB"
    >
      <feFlood flood-opacity="0" result="BackgroundImageFix" />
      <feBlend mode="normal" in="SourceGraphic" in2="BackgroundImageFix" result="shape" />
      <feGaussianBlur stdDeviation="93.5" result="effect1_foregroundBlur_236_3732" />
    </filter>
    <filter
      id="filter2_f_236_3732"
      x="0"
      y="263"
      width="2513"
      height="726"
      filterUnits="userSpaceOnUse"
      color-interpolation-filters="sRGB"
    >
      <feFlood flood-opacity="0" result="BackgroundImageFix" />
      <feBlend mode="normal" in="SourceGraphic" in2="BackgroundImageFix" result="shape" />
      <feGaussianBlur stdDeviation="93.5" result="effect1_foregroundBlur_236_3732" />
    </filter>
    <filter
      id="filter3_f_236_3732"
      x="0"
      y="132"
      width="2513"
      height="726"
      filterUnits="userSpaceOnUse"
      color-interpolation-filters="sRGB"
    >
      <feFlood flood-opacity="0" result="BackgroundImageFix" />
      <feBlend mode="normal" in="SourceGraphic" in2="BackgroundImageFix" result="shape" />
      <feGaussianBlur stdDeviation="93.5" result="effect1_foregroundBlur_236_3732" />
    </filter>
  </defs>
</svg>
