<svg width="36" height="36" viewBox="0 0 36 36" fill="none" xmlns="http://www.w3.org/2000/svg">
<rect opacity="0.17" width="36" height="36" rx="10" fill="#FF4757"/>
<path d="M10.5 20.5001V22C10.5 22.9334 10.5 23.3998 10.6817 23.7563C10.8414 24.0699 11.0962 24.3254 11.4098 24.4851C11.766 24.6666 12.2325 24.6666 13.1641 24.6666H25.5002M10.5 20.5001V12.1666M10.5 20.5001L13.7112 17.8242L13.7138 17.822C14.2947 17.338 14.5857 17.0955 14.9013 16.9969C15.2741 16.8806 15.6756 16.899 16.0363 17.0486C16.3421 17.1755 16.6102 17.4436 17.1465 17.9799L17.1518 17.9852C17.6964 18.5298 17.9694 18.8028 18.2801 18.9294C18.6478 19.0792 19.0571 19.0921 19.4339 18.9671C19.7534 18.8611 20.0452 18.6063 20.6286 18.0958L25.5 13.8333" stroke="#FF4757" stroke-width="2" stroke-linecap="round" stroke-linejoin="round"/>
</svg>
