<svg width="50" height="50" viewBox="0 0 50 50" fill="none" xmlns="http://www.w3.org/2000/svg">
<rect opacity="0.17" width="50" height="50" rx="10" fill="#FF4757"/>
<path d="M22 24V33M22 24H17.5996C17.0396 24 16.7598 24 16.5459 24.109C16.3577 24.2049 16.2049 24.3577 16.109 24.5459C16 24.7598 16 25.04 16 25.6001V33H22M22 24V18.6001C22 18.04 22 17.7598 22.109 17.5459C22.2049 17.3577 22.3577 17.2049 22.5459 17.109C22.7598 17 23.0396 17 23.5996 17H26.3996C26.9597 17 27.2403 17 27.4542 17.109C27.6423 17.2049 27.7948 17.3577 27.8906 17.5459C27.9996 17.7598 28 18.04 28 18.6001V21M22 33H28M28 33L34 33.0001V22.6001C34 22.04 33.9996 21.7598 33.8906 21.5459C33.7948 21.3577 33.6429 21.2049 33.4548 21.109C33.2409 21 32.9601 21 32.4 21H28M28 33V21" stroke="#FF4757" stroke-width="2" stroke-linecap="round" stroke-linejoin="round"/>
</svg>
