<svg width="36" height="36" viewBox="0 0 36 36" fill="none" xmlns="http://www.w3.org/2000/svg">
<rect opacity="0.17" width="36" height="36" rx="10" transform="matrix(1 0 -4.22818e-05 1 0.00152214 0)" fill="#FF4757"/>
<path d="M21.0008 15L17.0006 19L15.0007 17M26.0007 16.165C26.0005 22.7333 21.0323 25.6781 18.9261 26.6314L18.9234 26.6325C18.7019 26.7328 18.5909 26.7831 18.3391 26.8263C18.1797 26.8537 17.8218 26.8537 17.6624 26.8263C17.4097 26.7829 17.2975 26.7325 17.0742 26.6314C14.9681 25.6781 10.0005 22.7333 10.0007 16.165L10.0009 12.2002C10.0009 11.0801 10.001 10.5196 10.219 10.0918C10.4107 9.71547 10.7165 9.40973 11.0928 9.21799C11.5207 9 12.0811 9 13.2012 9H22.8012C23.9213 9 24.4806 9 24.9084 9.21799C25.2847 9.40973 25.5915 9.71547 25.7832 10.0918C26.001 10.5192 26.0009 11.079 26.0009 12.1969L26.0007 16.165Z" stroke="#FF4757" stroke-width="2" stroke-linecap="round" stroke-linejoin="round"/>
</svg>
