<svg xmlns="http://www.w3.org/2000/svg" width="58" height="39" viewBox="0 0 58 39" fill="none">
  <path
    d="M20.6634 26.4863L23.2419 11.3552H27.3661L24.7857 26.4863H20.6634ZM39.6863 11.6814C38.8694 11.3749 37.5889 11.0459 35.99 11.0459C31.9146 11.0459 29.0441 13.0981 29.0195 16.0394C28.9966 18.2136 31.069 19.4266 32.6334 20.1503C34.2388 20.8922 34.7784 21.3651 34.7707 22.0272C34.7604 23.0416 33.4887 23.5047 32.3032 23.5047C30.6525 23.5047 29.7756 23.2754 28.4211 22.7107L27.8894 22.4702L27.3107 25.8574C28.274 26.28 30.0553 26.6457 31.9049 26.6647C36.2404 26.6647 39.0548 24.6359 39.0868 21.4949C39.1022 19.7736 38.0034 18.4638 35.6239 17.3838C34.1824 16.6838 33.2996 16.2167 33.3089 15.5079C33.3089 14.879 34.0562 14.2065 35.671 14.2065C37.0195 14.1855 37.9966 14.4796 38.7578 14.7862L39.1274 14.9608L39.6863 11.6814ZM50.2996 11.355H47.1127C46.1255 11.355 45.3866 11.6244 44.9531 12.6098L38.8279 26.4764H43.1588C43.1588 26.4764 43.8667 24.612 44.0269 24.2025C44.5002 24.2025 48.7075 24.209 49.3089 24.209C49.4322 24.7388 49.8107 26.4764 49.8107 26.4764H53.6377L50.2996 11.3545V11.355ZM45.2432 21.1258C45.5844 20.254 46.8865 16.8959 46.8865 16.8959C46.8622 16.9362 47.2251 16.0199 47.4333 15.4517L47.712 16.7563C47.712 16.7563 48.5017 20.3682 48.6668 21.1255H45.2432V21.1258ZM17.1622 11.355L13.1245 21.6738L12.6943 19.5769C11.9425 17.1596 9.60061 14.5406 6.98242 13.2295L10.6745 26.4622L15.0382 26.4574L21.5312 11.3548L17.1622 11.3548"
    fill="#0E4595"
  />
  <path
    d="M9.35748 11.3545H2.70701L2.6543 11.6693C7.82829 12.9218 11.2517 15.9486 12.6732 19.5858L11.2271 12.6324C10.9775 11.6743 10.2534 11.3883 9.35764 11.3549"
    fill="#F2AE14"
  />
</svg>
<svg xmlns="http://www.w3.org/2000/svg" width="58" height="39" viewBox="0 0 58 39" fill="none">
  <g clip-path="url(#clip0_184_3596)">
    <path
      fill-rule="evenodd"
      clip-rule="evenodd"
      d="M18.2776 32.2462V34.1594V36.0727H17.439V35.6081C17.173 35.9527 16.7695 36.169 16.221 36.169C15.1395 36.169 14.2917 35.3287 14.2917 34.1594C14.2917 32.9911 15.1395 32.1499 16.221 32.1499C16.7695 32.1499 17.173 32.3662 17.439 32.7108V32.2462H18.2776ZM16.3252 32.9344C15.5994 32.9344 15.1552 33.4869 15.1552 34.1594C15.1552 34.832 15.5994 35.3845 16.3252 35.3845C17.0189 35.3845 17.4871 34.8558 17.4871 34.1594C17.4871 33.4631 17.0189 32.9344 16.3252 32.9344ZM46.6152 34.1594C46.6152 33.4869 47.0594 32.9344 47.7853 32.9344C48.4798 32.9344 48.9471 33.4631 48.9471 34.1594C48.9471 34.8558 48.4798 35.3845 47.7853 35.3845C47.0594 35.3845 46.6152 34.832 46.6152 34.1594ZM49.7386 30.7095V34.1594V36.0727H48.8991V35.6081C48.633 35.9527 48.2295 36.169 47.681 36.169C46.5995 36.169 45.7517 35.3287 45.7517 34.1594C45.7517 32.9911 46.5995 32.1499 47.681 32.1499C48.2295 32.1499 48.633 32.3662 48.8991 32.7108V30.7095H49.7386ZM28.6868 32.895C29.227 32.895 29.5742 33.2312 29.6629 33.8232H27.6616C27.7512 33.2707 28.0891 32.895 28.6868 32.895ZM26.7824 34.1594C26.7824 32.9664 27.5729 32.1499 28.7033 32.1499C29.7839 32.1499 30.5264 32.9664 30.5347 34.1594C30.5347 34.2712 30.5264 34.3757 30.5181 34.4792H27.6542C27.7752 35.1683 28.2674 35.4167 28.8076 35.4167C29.1946 35.4167 29.6066 35.2718 29.9298 35.0162L30.3407 35.6329C29.8725 36.025 29.3406 36.169 28.7597 36.169C27.6053 36.169 26.7824 35.3764 26.7824 34.1594ZM38.829 34.1594C38.829 33.4869 39.2732 32.9344 39.9991 32.9344C40.6925 32.9344 41.1609 33.4631 41.1609 34.1594C41.1609 34.8558 40.6925 35.3845 39.9991 35.3845C39.2732 35.3845 38.829 34.832 38.829 34.1594ZM41.9514 32.2462V34.1594V36.0727H41.1128V35.6081C40.8459 35.9527 40.4433 36.169 39.8946 36.169C38.8132 36.169 37.9654 35.3287 37.9654 34.1594C37.9654 32.9911 38.8132 32.1499 39.8946 32.1499C40.4433 32.1499 40.8459 32.3662 41.1128 32.7108V32.2462H41.9514ZM34.093 34.1594C34.093 35.3204 34.9076 36.169 36.1506 36.169C36.7316 36.169 37.1185 36.0407 37.5379 35.7126L37.1351 35.0401C36.8203 35.2646 36.4896 35.3845 36.1258 35.3845C35.4561 35.3764 34.964 34.8961 34.964 34.1594C34.964 33.4228 35.4561 32.9425 36.1258 32.9344C36.4896 32.9344 36.8203 33.0543 37.1351 33.2788L37.5379 32.6062C37.1185 32.2782 36.7316 32.1499 36.1506 32.1499C34.9076 32.1499 34.093 32.9985 34.093 34.1594ZM43.888 32.7108C44.1059 32.3744 44.4209 32.1499 44.9049 32.1499C45.0747 32.1499 45.3167 32.1821 45.5023 32.2544L45.2438 33.0388C45.0664 32.9664 44.889 32.9425 44.7192 32.9425C44.1706 32.9425 43.8963 33.2944 43.8963 33.9276V36.0727H43.0568V32.2462H43.888V32.7108ZM22.4252 32.5504C22.0216 32.2865 21.4657 32.1499 20.8524 32.1499C19.8753 32.1499 19.2463 32.6145 19.2463 33.3751C19.2463 33.9991 19.7147 34.3839 20.5772 34.504L20.9734 34.5598C21.4333 34.6241 21.6504 34.744 21.6504 34.9603C21.6504 35.2563 21.3437 35.4248 20.7711 35.4248C20.1902 35.4248 19.771 35.2407 19.4883 35.0244L19.0931 35.6723C19.553 36.0086 20.1339 36.169 20.7628 36.169C21.8766 36.169 22.5221 35.6484 22.5221 34.92C22.5221 34.2473 22.0142 33.8955 21.1747 33.7755L20.7794 33.7187C20.4166 33.671 20.1256 33.5996 20.1256 33.343C20.1256 33.0626 20.3998 32.895 20.8597 32.895C21.352 32.895 21.8285 33.0791 22.0622 33.223L22.4252 32.5504ZM32.2294 32.7108C32.4464 32.3744 32.7614 32.1499 33.2452 32.1499C33.4152 32.1499 33.6572 32.1821 33.8427 32.2544L33.5841 33.0388C33.4069 32.9664 33.2296 32.9425 33.0596 32.9425C32.5111 32.9425 32.2368 33.2944 32.2368 33.9276V36.0727H31.3982V32.2462H32.2294V32.7108ZM26.0888 32.2462H24.7174V31.0852H23.8696V32.2462H23.0874V33.0067H23.8696V34.7523C23.8696 35.6403 24.2168 36.169 25.2087 36.169C25.5725 36.169 25.9919 36.0572 26.2578 35.8729L26.0158 35.16C25.7655 35.304 25.4913 35.3764 25.2734 35.3764C24.854 35.3764 24.7174 35.1197 24.7174 34.7358V33.0067H26.0888V32.2462ZM13.55 33.671V36.0727H12.7023V33.9432C12.7023 33.2944 12.428 32.9344 11.8554 32.9344C11.2985 32.9344 10.9115 33.2871 10.9115 33.9515V36.0727H10.0637V33.9432C10.0637 33.2944 9.78207 32.9344 9.22514 32.9344C8.65162 32.9344 8.28046 33.2871 8.28046 33.9515V36.0727H7.43359V32.2462H8.27308V32.718C8.58801 32.27 8.99065 32.1499 9.40249 32.1499C9.99169 32.1499 10.411 32.4066 10.677 32.8307C11.0325 32.2939 11.5405 32.1416 12.0327 32.1499C12.9691 32.1582 13.55 32.7666 13.55 33.671Z"
      fill="#1A1A1A"
    />
    <path d="M34.6344 25.8503H22.3657V3.97412H34.6344V25.8503Z" fill="#FF5F00" />
    <path
      d="M23.1455 14.9128C23.1455 10.4751 25.2396 6.5221 28.5006 3.97468C26.116 2.11186 23.1062 1 19.8354 1C12.092 1 5.81494 7.22892 5.81494 14.9128C5.81494 22.5967 12.092 28.8256 19.8354 28.8256C23.1062 28.8256 26.116 27.7138 28.5006 25.8509C25.2396 23.3036 23.1455 19.3506 23.1455 14.9128Z"
      fill="#EB001B"
    />
    <path
      d="M51.1852 14.9128C51.1852 22.5967 44.9082 28.8256 37.1648 28.8256C33.8938 28.8256 30.8842 27.7138 28.4985 25.8509C31.7605 23.3036 33.8547 19.3506 33.8547 14.9128C33.8547 10.4751 31.7605 6.5221 28.4985 3.97468C30.8842 2.11186 33.8938 1 37.1648 1C44.9082 1 51.1852 7.22892 51.1852 14.9128Z"
      fill="#F79E1B"
    />
  </g>
  <defs>
    <clipPath id="clip0_184_3596">
      <rect width="58" height="39" fill="white" />
    </clipPath>
  </defs>
</svg>
<svg xmlns="http://www.w3.org/2000/svg" width="58" height="39" viewBox="0 0 58 39" fill="none">
  <path
    d="M28.9167 3.80518C28.9412 3.93007 28.9079 4.03196 28.8167 4.11084C21.7967 10.0762 21.9601 20.0777 29.0134 25.9313"
    stroke="#AF3B75"
    stroke-width="2"
  />
  <path d="M29.0133 25.9313C29.0089 25.9839 29.0044 26.0222 29 26.0463" stroke="#765180" stroke-width="2" />
  <path
    d="M29.0126 25.9313C36.0892 20.0317 36.1859 9.92504 29.0526 4.01553C29.0059 3.97608 28.9992 3.93117 29.0326 3.88077L29.0826 3.80518"
    stroke="#3A8CDA"
    stroke-width="2"
  />
  <path
    d="M28.9164 3.80516C28.9408 3.93006 28.9075 4.03195 28.8164 4.11083C21.7964 10.0762 21.9597 20.0777 29.0131 25.9313C29.0086 25.9839 29.0042 26.0222 28.9997 26.0464C23.4831 30.0101 15.9064 30.0791 10.7364 25.4679C2.06307 17.7343 5.77973 3.76244 17.0964 1.17908C21.3231 0.212786 25.2631 1.08815 28.9164 3.80516Z"
    fill="#EB001B"
  />
  <path
    d="M29 26.0463C29.0044 26.0222 29.0089 25.9839 29.0133 25.9313C36.09 20.0316 36.1867 9.92499 29.0533 4.01548C29.0067 3.97604 29 3.93112 29.0333 3.88072L29.0833 3.80513C40.5067 -4.41823 55.94 6.211 51.2467 19.5583C47.9833 28.8433 36.9033 31.683 29 26.0463Z"
    fill="#00A2E5"
  />
  <path
    d="M28.9167 3.80518H29.0834L29.0334 3.88077C29.0001 3.93117 29.0068 3.97608 29.0534 4.01553C36.1868 9.92504 36.0901 20.0317 29.0134 25.9313C21.9601 20.0777 21.7967 10.0762 28.8167 4.11084C28.9079 4.03196 28.9412 3.93007 28.9167 3.80518Z"
    fill="#7375CF"
  />
  <path
    d="M50.6894 23.4532L50.616 23.496C50.4827 23.5748 50.416 23.5376 50.416 23.3842V23.1772C50.416 23.0632 50.4727 23.0128 50.586 23.026L51.4293 23.1279C51.5938 23.1454 51.6505 23.2308 51.5993 23.3842L51.5493 23.5288C51.4916 23.7019 51.3871 23.7381 51.236 23.6373L50.9727 23.4631C50.8793 23.4017 50.7849 23.3985 50.6894 23.4532Z"
    fill="#00A2E5"
  />
  <path
    d="M35.086 33.2672C35.076 33.8949 34.7294 35.9031 36.206 35.1176C36.3549 35.0387 36.4416 35.0825 36.466 35.2491L36.526 35.6993C36.5438 35.8286 36.4916 35.9195 36.3694 35.9721C35.6182 36.292 34.946 36.1956 34.3527 35.6829C34.2571 35.5996 34.2082 35.4956 34.206 35.3707L34.146 33.2902C34.1438 33.1609 34.076 33.0875 33.9427 33.07L33.6227 33.0239C33.5093 33.0086 33.4405 32.9451 33.416 32.8333L33.3493 32.4948C33.3116 32.3129 33.3871 32.222 33.576 32.222H33.916C34.0827 32.222 34.166 32.1398 34.166 31.9755V31.3609C34.166 31.2228 34.236 31.1538 34.376 31.1538H34.8327C34.9993 31.1538 35.0827 31.236 35.0827 31.4003V32.0149C35.0827 32.153 35.1527 32.222 35.2927 32.222H36.206C36.346 32.222 36.416 32.2899 36.416 32.4258V32.8366C36.416 32.9746 36.346 33.0437 36.206 33.0437H35.316C35.1649 33.0437 35.0882 33.1182 35.086 33.2672ZM17.2293 32.5507C18.2671 31.8824 19.1227 32.0007 19.796 32.9056C19.876 33.013 19.916 33.1335 19.916 33.2672V35.8768C19.916 36.0149 19.846 36.0839 19.706 36.0839H19.2327C19.0838 36.0839 19.0082 36.0105 19.006 35.8637C18.9893 35.1044 19.4427 32.6032 17.9327 33.07C17.0793 33.3329 17.326 35.2129 17.3193 35.867C17.3193 36.0116 17.246 36.0839 17.0993 36.0839H16.626C16.486 36.0839 16.416 36.016 16.416 35.8801V33.6156C16.4163 33.4898 16.3732 33.3676 16.2939 33.2691C16.2145 33.1706 16.1037 33.1015 15.9793 33.0732C14.3993 32.7183 14.7293 34.7758 14.7593 35.8867C14.7616 36.0181 14.696 36.0839 14.5627 36.0839H14.166C13.9993 36.0839 13.916 36.0017 13.916 35.8374V32.4553C13.916 32.3195 13.9838 32.2417 14.1193 32.222C14.3416 32.1891 14.5438 32.2264 14.726 32.3337C14.8371 32.3995 14.9493 32.4039 15.0627 32.3469C15.7471 32.0094 16.3671 32.0708 16.9227 32.5309C17.0205 32.6142 17.1227 32.6208 17.2293 32.5507Z"
    fill="black"
  />
  <path
    d="M23.6407 32.3435C23.8585 32.2098 24.1085 32.1715 24.3907 32.2284C24.5196 32.2525 24.584 32.3292 24.584 32.4585V35.8504C24.584 35.9862 24.5162 36.0629 24.3807 36.0805C24.1074 36.1155 23.8507 36.0739 23.6107 35.9556C23.5218 35.9096 23.4296 35.9041 23.334 35.9391C19.4874 37.3327 19.9807 30.7856 23.334 32.3599C23.4385 32.4081 23.5407 32.4026 23.6407 32.3435ZM23.724 34.138C23.724 33.8443 23.6057 33.5625 23.395 33.3548C23.1843 33.1471 22.8986 33.0304 22.6007 33.0304C22.3028 33.0304 22.017 33.1471 21.8064 33.3548C21.5957 33.5625 21.4774 33.8443 21.4774 34.138C21.4774 34.4318 21.5957 34.7135 21.8064 34.9212C22.017 35.1289 22.3028 35.2456 22.6007 35.2456C22.8986 35.2456 23.1843 35.1289 23.395 34.9212C23.6057 34.7135 23.724 34.4318 23.724 34.138ZM26.3374 34.7691C26.814 35.6663 27.614 35.2719 28.3307 35.0024C28.444 34.9586 28.5274 34.9904 28.5807 35.0977L28.7574 35.4363C28.8262 35.5677 28.7951 35.6685 28.664 35.7386C27.034 36.6129 25.1474 35.9457 25.2674 33.9967C25.4207 31.5152 29.1074 31.4429 29.0107 34.2859C29.004 34.4503 28.9174 34.5313 28.7507 34.5291L26.5007 34.5061C26.4693 34.5061 26.4385 34.5141 26.4111 34.5292C26.3837 34.5443 26.3607 34.5661 26.3443 34.5925C26.3279 34.6189 26.3187 34.649 26.3175 34.6799C26.3162 34.7108 26.3231 34.7415 26.3374 34.7691ZM26.334 33.7831L28.0074 33.7765C28.0206 33.7765 28.0333 33.7713 28.0427 33.762C28.0521 33.7528 28.0574 33.7403 28.0574 33.7272V33.7009C28.0566 33.5087 27.9677 33.3247 27.8103 33.1892C27.6528 33.0536 27.4396 32.9776 27.2174 32.9778H27.124C27.0135 32.9779 26.904 32.9969 26.8019 33.0336C26.6998 33.0704 26.607 33.1242 26.529 33.192C26.4509 33.2597 26.3891 33.3402 26.3471 33.4286C26.3051 33.5171 26.2836 33.6119 26.284 33.7075V33.7338C26.284 33.7402 26.2853 33.7466 26.2878 33.7526C26.2903 33.7586 26.294 33.764 26.2987 33.7686C26.3033 33.7732 26.3088 33.7768 26.3149 33.7793C26.321 33.7818 26.3275 33.7831 26.334 33.7831Z"
    fill="black"
  />
  <path
    d="M31.7898 35.2227C31.855 35.198 31.9099 35.1526 31.9459 35.0936C31.9819 35.0346 31.9968 34.9654 31.9884 34.8971C31.98 34.8288 31.9487 34.7652 31.8994 34.7164C31.8501 34.6676 31.7858 34.6364 31.7165 34.6278C28.0365 34.2301 29.7398 31.3806 32.5698 32.3764C32.7365 32.4378 32.8098 32.5561 32.7898 32.7314C32.6565 33.9212 30.8432 32.2252 30.5898 33.3033C30.5565 33.4435 30.6109 33.529 30.7532 33.5597L32.3732 33.9311C32.4909 33.9573 32.5832 34.0198 32.6498 34.1184C33.9798 36.1036 30.9332 36.475 29.6665 35.7059C29.5354 35.627 29.5121 35.5251 29.5965 35.4002L29.8298 35.0584C29.9054 34.951 29.9976 34.9346 30.1065 35.0091C30.6354 35.3663 31.1965 35.4375 31.7898 35.2227ZM38.3332 33.346L38.2098 35.9261C38.2054 36.0247 38.1532 36.0751 38.0532 36.0773L37.6298 36.0871C37.4876 36.0893 37.4165 36.0203 37.4165 35.8801V32.3732C37.4165 32.2154 37.4932 32.1584 37.6465 32.2022C38.2243 32.371 38.7865 32.3348 39.3332 32.0938C39.396 32.0666 39.4657 32.058 39.5335 32.0693C39.6013 32.0805 39.6642 32.111 39.7143 32.1569C39.7645 32.2028 39.7996 32.2622 39.8154 32.3275C39.8312 32.3929 39.827 32.4613 39.8032 32.5243L39.6632 32.899C39.6298 32.9911 39.5632 33.0382 39.4632 33.0404L38.6432 33.0502C38.4454 33.0524 38.3421 33.151 38.3332 33.346ZM44.1498 34.1513C44.1498 34.418 44.0965 34.6821 43.993 34.9286C43.8895 35.175 43.7378 35.3989 43.5465 35.5875C43.3552 35.7761 43.1281 35.9258 42.8782 36.0278C42.6282 36.1299 42.3604 36.1825 42.0898 36.1825C41.8193 36.1825 41.5514 36.1299 41.3015 36.0278C41.0516 35.9258 40.8245 35.7761 40.6332 35.5875C40.4419 35.3989 40.2902 35.175 40.1866 34.9286C40.0831 34.6821 40.0298 34.418 40.0298 34.1513C40.0298 33.6126 40.2469 33.0959 40.6332 32.715C41.0195 32.3341 41.5435 32.1201 42.0898 32.1201C42.6362 32.1201 43.1601 32.3341 43.5465 32.715C43.9328 33.0959 44.1498 33.6126 44.1498 34.1513ZM43.2332 34.148C43.2332 33.8507 43.1134 33.5657 42.9002 33.3555C42.6871 33.1453 42.398 33.0272 42.0965 33.0272C41.795 33.0272 41.5059 33.1453 41.2928 33.3555C41.0796 33.5657 40.9598 33.8507 40.9598 34.148C40.9598 34.4452 41.0796 34.7303 41.2928 34.9405C41.5059 35.1507 41.795 35.2687 42.0965 35.2687C42.398 35.2687 42.6871 35.1507 42.9002 34.9405C43.1134 34.7303 43.2332 34.4452 43.2332 34.148Z"
    fill="black"
  />
  <path
    d="M44.9058 36.2352C45.1396 36.2352 45.3291 36.0483 45.3291 35.8178C45.3291 35.5873 45.1396 35.4004 44.9058 35.4004C44.672 35.4004 44.4824 35.5873 44.4824 35.8178C44.4824 36.0483 44.672 36.2352 44.9058 36.2352Z"
    fill="black"
  />
</svg>
<svg width="105" height="39" viewBox="0 0 105 39" fill="none" xmlns="http://www.w3.org/2000/svg">
  <g clip-path="url(#clip0_240_3782)">
    <path
      d="M16.7833 3L31.6633 8.34483C31.6633 8.34483 31.6633 20.1034 23.651 27.5862C19.0725 31.8621 16.7833 34 16.7833 34C16.7833 34 14.4941 31.8621 9.91563 27.5862C1.90332 20.1034 1.90332 8.34483 1.90332 8.34483L16.7833 3Z"
      fill="#28A745"
    />
    <path
      d="M11.8237 17.2598L15.5437 21.5998L22.9837 12.9198"
      stroke="white"
      stroke-width="1.76324"
      stroke-linecap="round"
      stroke-linejoin="round"
    />
    <path
      d="M39.7395 12.4133C39.7111 12.1268 39.5892 11.9043 39.3738 11.7456C39.1583 11.587 38.8659 11.5077 38.4966 11.5077C38.2457 11.5077 38.0338 11.5432 37.861 11.6142C37.6882 11.6829 37.5556 11.7788 37.4632 11.9019C37.3733 12.025 37.3283 12.1647 37.3283 12.3209C37.3236 12.4511 37.3508 12.5648 37.41 12.6618C37.4715 12.7589 37.5556 12.8429 37.6621 12.914C37.7686 12.9826 37.8917 13.043 38.0314 13.0951C38.1711 13.1448 38.3203 13.1874 38.4789 13.2229L39.1323 13.3792C39.4495 13.4502 39.7407 13.5449 40.0059 13.6633C40.271 13.7816 40.5007 13.9272 40.6948 14.1C40.8889 14.2729 41.0392 14.4765 41.1458 14.7108C41.2547 14.9452 41.3103 15.2139 41.3127 15.5169C41.3103 15.962 41.1967 16.3479 40.9718 16.6746C40.7492 16.999 40.4273 17.2511 40.0059 17.431C39.5868 17.6086 39.0814 17.6973 38.4895 17.6973C37.9024 17.6973 37.391 17.6074 36.9554 17.4275C36.5222 17.2475 36.1837 16.9812 35.9398 16.6285C35.6983 16.2733 35.5717 15.8342 35.5598 15.311H37.0478C37.0643 15.5548 37.1342 15.7584 37.2573 15.9218C37.3828 16.0828 37.5497 16.2047 37.758 16.2875C37.9687 16.368 38.2066 16.4083 38.4718 16.4083C38.7322 16.4083 38.9583 16.3704 39.15 16.2946C39.3442 16.2189 39.4945 16.1135 39.601 15.9786C39.7076 15.8437 39.7608 15.6886 39.7608 15.5134C39.7608 15.35 39.7123 15.2127 39.6152 15.1015C39.5205 14.9902 39.3809 14.8955 39.1962 14.8174C39.0139 14.7392 38.7902 14.6682 38.525 14.6043L37.7331 14.4054C37.12 14.2563 36.6358 14.0231 36.2807 13.7059C35.9256 13.3886 35.7492 12.9613 35.7516 12.4239C35.7492 11.9836 35.8664 11.5989 36.1032 11.2698C36.3423 10.9407 36.6702 10.6838 37.0868 10.4992C37.5035 10.3145 37.977 10.2222 38.5073 10.2222C39.0471 10.2222 39.5182 10.3145 39.9206 10.4992C40.3255 10.6838 40.6403 10.9407 40.8652 11.2698C41.0901 11.5989 41.2061 11.98 41.2132 12.4133H39.7395ZM42.3469 17.5944V10.3216H47.2475V11.5894H43.8846V13.3223H46.9954V14.5901H43.8846V16.3266H47.2617V17.5944H42.3469ZM54.8869 12.8678H53.3315C53.3031 12.6666 53.2451 12.4878 53.1575 12.3316C53.0699 12.173 52.9574 12.038 52.8201 11.9267C52.6828 11.8155 52.5242 11.7303 52.3443 11.6711C52.1667 11.6119 51.9738 11.5823 51.7654 11.5823C51.389 11.5823 51.0611 11.6758 50.7818 11.8628C50.5024 12.0475 50.2858 12.3174 50.1319 12.6725C49.978 13.0252 49.9011 13.4537 49.9011 13.958C49.9011 14.4765 49.978 14.9121 50.1319 15.2648C50.2882 15.6176 50.506 15.8839 50.7853 16.0638C51.0647 16.2437 51.3878 16.3337 51.7548 16.3337C51.9608 16.3337 52.1513 16.3065 52.3265 16.252C52.5041 16.1976 52.6615 16.1183 52.7988 16.0141C52.9361 15.9076 53.0498 15.7785 53.1397 15.627C53.2321 15.4755 53.296 15.3027 53.3315 15.1086L54.8869 15.1157C54.8467 15.4495 54.746 15.7714 54.585 16.0816C54.4264 16.3893 54.2122 16.6651 53.9423 16.909C53.6748 17.1505 53.3552 17.3422 52.9835 17.4843C52.6142 17.624 52.1963 17.6938 51.7299 17.6938C51.0813 17.6938 50.5012 17.547 49.9899 17.2535C49.4809 16.9599 49.0784 16.5349 48.7825 15.9786C48.4889 15.4222 48.3422 14.7487 48.3422 13.958C48.3422 13.1649 48.4913 12.4902 48.7896 11.9338C49.0879 11.3775 49.4927 10.9537 50.0041 10.6625C50.5154 10.369 51.0907 10.2222 51.7299 10.2222C52.1513 10.2222 52.542 10.2814 52.9018 10.3998C53.264 10.5181 53.5848 10.691 53.8642 10.9182C54.1435 11.1431 54.3708 11.4189 54.546 11.7456C54.7235 12.0723 54.8372 12.4464 54.8869 12.8678ZM60.4817 10.3216H62.0194V15.0446C62.0194 15.5749 61.8927 16.039 61.6394 16.4367C61.3884 16.8344 61.0369 17.1445 60.5847 17.3671C60.1325 17.5873 59.6058 17.6973 59.0044 17.6973C58.4007 17.6973 57.8728 17.5873 57.4206 17.3671C56.9685 17.1445 56.6169 16.8344 56.3659 16.4367C56.115 16.039 55.9895 15.5749 55.9895 15.0446V10.3216H57.5272V14.9133C57.5272 15.1902 57.5875 15.4365 57.7083 15.6519C57.8314 15.8673 58.0042 16.0366 58.2267 16.1597C58.4493 16.2828 58.7085 16.3444 59.0044 16.3444C59.3027 16.3444 59.562 16.2828 59.7821 16.1597C60.0047 16.0366 60.1763 15.8673 60.2971 15.6519C60.4202 15.4365 60.4817 15.1902 60.4817 14.9133V10.3216ZM63.2844 17.5944V10.3216H66.1538C66.703 10.3216 67.1718 10.4199 67.56 10.6164C67.9506 10.8105 68.2478 11.0863 68.4513 11.4438C68.6573 11.7989 68.7603 12.2168 68.7603 12.6973C68.7603 13.1803 68.6561 13.5958 68.4478 13.9438C68.2395 14.2894 67.9376 14.5546 67.5423 14.7392C67.1493 14.9239 66.6734 15.0162 66.1147 15.0162H64.1935V13.7804H65.8661C66.1597 13.7804 66.4035 13.7402 66.5977 13.6597C66.7918 13.5792 66.9362 13.4585 67.0309 13.2975C67.128 13.1365 67.1765 12.9365 67.1765 12.6973C67.1765 12.4559 67.128 12.2523 67.0309 12.0865C66.9362 11.9208 66.7906 11.7954 66.5941 11.7101C66.4 11.6225 66.1549 11.5787 65.859 11.5787H64.8221V17.5944H63.2844ZM67.212 14.2847L69.0195 17.5944H67.3221L65.5536 14.2847H67.212ZM69.8469 17.5944V10.3216H74.7475V11.5894H71.3846V13.3223H74.4954V14.5901H71.3846V16.3266H74.7617V17.5944H69.8469Z"
      fill="#1A1A1A"
    />
    <path
      opacity="0.27"
      d="M38.9746 25.0884C38.9443 24.8195 38.8193 24.6111 38.5996 24.4634C38.3799 24.3138 38.1034 24.239 37.7701 24.239C37.5314 24.239 37.325 24.2768 37.1507 24.3526C36.9765 24.4265 36.8411 24.5287 36.7445 24.6594C36.6498 24.7882 36.6025 24.935 36.6025 25.0998C36.6025 25.238 36.6346 25.3573 36.699 25.4577C36.7653 25.5581 36.8515 25.6424 36.9576 25.7106C37.0655 25.7768 37.181 25.8327 37.3042 25.8782C37.4273 25.9217 37.5456 25.9577 37.6593 25.9861L38.2275 26.1339C38.4131 26.1793 38.6034 26.2409 38.7985 26.3185C38.9935 26.3962 39.1744 26.4984 39.3411 26.6253C39.5078 26.7522 39.6422 26.9094 39.7445 27.0969C39.8487 27.2844 39.9007 27.5089 39.9007 27.7702C39.9007 28.0998 39.8155 28.3924 39.6451 28.6481C39.4765 28.9037 39.2312 29.1054 38.9093 29.2532C38.5892 29.4009 38.2019 29.4748 37.7473 29.4748C37.3117 29.4748 36.9348 29.4056 36.6167 29.2674C36.2985 29.1291 36.0494 28.9331 35.8695 28.6793C35.6896 28.4236 35.5901 28.1206 35.5712 27.7702H36.4519C36.4689 27.9804 36.5371 28.1556 36.6564 28.2958C36.7776 28.434 36.932 28.5373 37.1195 28.6054C37.3089 28.6717 37.5163 28.7049 37.7417 28.7049C37.9898 28.7049 38.2104 28.6661 38.4036 28.5884C38.5987 28.5089 38.7521 28.399 38.8638 28.2589C38.9756 28.1168 39.0314 27.9511 39.0314 27.7617C39.0314 27.5893 38.9822 27.4482 38.8837 27.3384C38.7871 27.2286 38.6555 27.1376 38.4888 27.0657C38.324 26.9937 38.1375 26.9303 37.9292 26.8753L37.2417 26.6878C36.7757 26.5609 36.4064 26.3744 36.1337 26.1282C35.8629 25.882 35.7275 25.5562 35.7275 25.1509C35.7275 24.8157 35.8184 24.5231 36.0002 24.2731C36.182 24.0231 36.4282 23.8289 36.7388 23.6907C37.0494 23.5505 37.3998 23.4804 37.79 23.4804C38.1839 23.4804 38.5314 23.5496 38.8326 23.6878C39.1356 23.8261 39.3742 24.0164 39.5485 24.2589C39.7227 24.4994 39.8136 24.7759 39.8212 25.0884H38.9746ZM44.123 25.0884C44.0927 24.8195 43.9677 24.6111 43.748 24.4634C43.5284 24.3138 43.2518 24.239 42.9185 24.239C42.6799 24.239 42.4734 24.2768 42.2992 24.3526C42.1249 24.4265 41.9895 24.5287 41.8929 24.6594C41.7982 24.7882 41.7509 24.935 41.7509 25.0998C41.7509 25.238 41.7831 25.3573 41.8475 25.4577C41.9138 25.5581 41.9999 25.6424 42.106 25.7106C42.214 25.7768 42.3295 25.8327 42.4526 25.8782C42.5757 25.9217 42.6941 25.9577 42.8077 25.9861L43.3759 26.1339C43.5615 26.1793 43.7518 26.2409 43.9469 26.3185C44.142 26.3962 44.3229 26.4984 44.4895 26.6253C44.6562 26.7522 44.7907 26.9094 44.8929 27.0969C44.9971 27.2844 45.0492 27.5089 45.0492 27.7702C45.0492 28.0998 44.964 28.3924 44.7935 28.6481C44.6249 28.9037 44.3797 29.1054 44.0577 29.2532C43.7376 29.4009 43.3503 29.4748 42.8958 29.4748C42.4602 29.4748 42.0833 29.4056 41.7651 29.2674C41.4469 29.1291 41.1979 28.9331 41.0179 28.6793C40.838 28.4236 40.7386 28.1206 40.7196 27.7702H41.6003C41.6174 27.9804 41.6855 28.1556 41.8049 28.2958C41.9261 28.434 42.0804 28.5373 42.2679 28.6054C42.4573 28.6717 42.6647 28.7049 42.8901 28.7049C43.1382 28.7049 43.3588 28.6661 43.552 28.5884C43.7471 28.5089 43.9005 28.399 44.0123 28.2589C44.124 28.1168 44.1799 27.9511 44.1799 27.7617C44.1799 27.5893 44.1306 27.4482 44.0321 27.3384C43.9355 27.2286 43.8039 27.1376 43.6373 27.0657C43.4725 26.9937 43.2859 26.9303 43.0776 26.8753L42.3901 26.6878C41.9242 26.5609 41.5549 26.3744 41.2821 26.1282C41.0113 25.882 40.8759 25.5562 40.8759 25.1509C40.8759 24.8157 40.9668 24.5231 41.1486 24.2731C41.3304 24.0231 41.5766 23.8289 41.8873 23.6907C42.1979 23.5505 42.5482 23.4804 42.9384 23.4804C43.3323 23.4804 43.6799 23.5496 43.981 23.6878C44.284 23.8261 44.5227 24.0164 44.6969 24.2589C44.8712 24.4994 44.9621 24.7759 44.9696 25.0884H44.123ZM46.0982 29.3782V23.56H46.976V28.6225H49.6124V29.3782H46.0982ZM52.731 29.3782V23.56H56.3787V24.3157H53.6088V26.0884H56.1884V26.8412H53.6088V28.6225H56.4128V29.3782H52.731ZM62.2473 23.56V29.3782H61.4405L58.4831 25.1111H58.4292V29.3782H57.5513V23.56H58.3638L61.324 27.8327H61.378V23.56H62.2473ZM68.3603 25.452H67.4739C67.4398 25.2626 67.3764 25.096 67.2836 24.952C67.1908 24.8081 67.0771 24.6859 66.9426 24.5856C66.8082 24.4852 66.6576 24.4094 66.4909 24.3583C66.3262 24.3072 66.151 24.2816 65.9654 24.2816C65.6301 24.2816 65.33 24.3659 65.0648 24.5344C64.8016 24.703 64.5932 24.9501 64.4398 25.2759C64.2883 25.6017 64.2125 25.9994 64.2125 26.4691C64.2125 26.9426 64.2883 27.3422 64.4398 27.6679C64.5932 27.9937 64.8025 28.2399 65.0676 28.4066C65.3328 28.5732 65.6311 28.6566 65.9625 28.6566C66.1462 28.6566 66.3205 28.632 66.4853 28.5827C66.6519 28.5316 66.8025 28.4568 66.937 28.3583C67.0714 28.2598 67.1851 28.1395 67.2779 27.9975C67.3726 27.8536 67.4379 27.6888 67.4739 27.5032L68.3603 27.506C68.3129 27.792 68.2211 28.0553 68.0847 28.2958C67.9502 28.5344 67.7769 28.7409 67.5648 28.9151C67.3546 29.0875 67.1141 29.221 66.8432 29.3157C66.5724 29.4104 66.2769 29.4577 65.9569 29.4577C65.4531 29.4577 65.0042 29.3384 64.6103 29.0998C64.2163 28.8592 63.9057 28.5155 63.6784 28.0685C63.4531 27.6215 63.3404 27.0884 63.3404 26.4691C63.3404 25.8479 63.454 25.3147 63.6813 24.8697C63.9086 24.4227 64.2192 24.0799 64.6131 23.8412C65.007 23.6007 65.455 23.4804 65.9569 23.4804C66.2656 23.4804 66.5534 23.525 66.8205 23.614C67.0894 23.7011 67.3309 23.8299 67.5449 24.0003C67.7589 24.1689 67.936 24.3753 68.0762 24.6197C68.2163 24.8621 68.311 25.1395 68.3603 25.452ZM69.4107 29.3782V23.56H71.4846C71.9353 23.56 72.3094 23.6376 72.6067 23.7929C72.906 23.9482 73.1294 24.1632 73.2772 24.4378C73.4249 24.7106 73.4988 25.0259 73.4988 25.3839C73.4988 25.7399 73.4239 26.0534 73.2743 26.3242C73.1266 26.5931 72.9031 26.8024 72.6039 26.952C72.3065 27.1017 71.9325 27.1765 71.4817 27.1765H69.9107V26.4208H71.4022C71.6863 26.4208 71.9173 26.3801 72.0953 26.2986C72.2753 26.2172 72.4069 26.0988 72.4902 25.9435C72.5736 25.7882 72.6152 25.6017 72.6152 25.3839C72.6152 25.1642 72.5726 24.9738 72.4874 24.8128C72.4041 24.6518 72.2724 24.5287 72.0925 24.4435C71.9145 24.3564 71.6806 24.3128 71.3908 24.3128H70.2885V29.3782H69.4107ZM72.2828 26.7532L73.7203 29.3782H72.7203L71.3113 26.7532H72.2828ZM73.9071 23.56H74.9043L76.4242 26.2049H76.4867L78.0066 23.56H79.0037L76.8929 27.0941V29.3782H76.0179V27.0941L73.9071 23.56ZM79.8326 29.3782V23.56H81.9064C82.3591 23.56 82.7341 23.6424 83.0314 23.8072C83.3288 23.9719 83.5513 24.1973 83.699 24.4833C83.8468 24.7674 83.9206 25.0875 83.9206 25.4435C83.9206 25.8015 83.8458 26.1234 83.6962 26.4094C83.5485 26.6935 83.325 26.9189 83.0257 27.0856C82.7284 27.2503 82.3543 27.3327 81.9036 27.3327H80.4775V26.5884H81.824C82.11 26.5884 82.342 26.5392 82.5201 26.4407C82.6981 26.3403 82.8288 26.2039 82.9121 26.0316C82.9954 25.8592 83.0371 25.6632 83.0371 25.4435C83.0371 25.2238 82.9954 25.0287 82.9121 24.8583C82.8288 24.6878 82.6971 24.5543 82.5172 24.4577C82.3392 24.3611 82.1043 24.3128 81.8127 24.3128H80.7104V29.3782H79.8326ZM84.6628 24.3157V23.56H89.1657V24.3157H87.3503V29.3782H86.4753V24.3157H84.6628ZM91.0385 23.56V29.3782H90.1607V23.56H91.0385ZM97.3709 26.4691C97.3709 27.0903 97.2573 27.6244 97.03 28.0714C96.8027 28.5164 96.4912 28.8592 96.0953 29.0998C95.7014 29.3384 95.2535 29.4577 94.7516 29.4577C94.2478 29.4577 93.798 29.3384 93.4022 29.0998C93.0082 28.8592 92.6976 28.5155 92.4703 28.0685C92.2431 27.6215 92.1294 27.0884 92.1294 26.4691C92.1294 25.8479 92.2431 25.3147 92.4703 24.8697C92.6976 24.4227 93.0082 24.0799 93.4022 23.8412C93.798 23.6007 94.2478 23.4804 94.7516 23.4804C95.2535 23.4804 95.7014 23.6007 96.0953 23.8412C96.4912 24.0799 96.8027 24.4227 97.03 24.8697C97.2573 25.3147 97.3709 25.8479 97.3709 26.4691ZM96.5016 26.4691C96.5016 25.9956 96.4249 25.5969 96.2715 25.2731C96.12 24.9473 95.9116 24.7011 95.6465 24.5344C95.3832 24.3659 95.0849 24.2816 94.7516 24.2816C94.4164 24.2816 94.1171 24.3659 93.8539 24.5344C93.5906 24.7011 93.3823 24.9473 93.2289 25.2731C93.0774 25.5969 93.0016 25.9956 93.0016 26.4691C93.0016 26.9426 93.0774 27.3422 93.2289 27.6679C93.3823 27.9918 93.5906 28.238 93.8539 28.4066C94.1171 28.5732 94.4164 28.6566 94.7516 28.6566C95.0849 28.6566 95.3832 28.5732 95.6465 28.4066C95.9116 28.238 96.12 27.9918 96.2715 27.6679C96.4249 27.3422 96.5016 26.9426 96.5016 26.4691ZM103.161 23.56V29.3782H102.355L99.3972 25.1111H99.3432V29.3782H98.4654V23.56H99.2779L102.238 27.8327H102.292V23.56H103.161Z"
      fill="#1A1A1A"
    />
  </g>
  <defs>
    <clipPath id="clip0_240_3782">
      <rect width="105" height="39" fill="white" />
    </clipPath>
  </defs>
</svg>
