<svg width="50" height="50" viewBox="0 0 50 50" fill="none" xmlns="http://www.w3.org/2000/svg">
    <rect opacity=".17" width="50" height="50" rx="10" fill="#FF4757"/>
    <path d="M22 24v9m0-9h-4.4c-.56 0-.84 0-1.054.109a1 1 0 0 0-.437.437C16 24.76 16 25.04 16 25.6V33h6m0-9v-5.4c0-.56 0-.84.109-1.054a1 1 0 0 1 .437-.437C22.76 17 23.04 17 23.6 17h2.8c.56 0 .84 0 1.054.109.188.096.34.249.437.437.109.214.109.494.109 1.054V21m-6 12h6m0 0h6V22.6c0-.56 0-.84-.11-1.054a.997.997 0 0 0-.435-.437C33.24 21 32.96 21 32.4 21H28m0 12V21" stroke="#FF4757" stroke-width="2" stroke-linecap="round" stroke-linejoin="round"/>
</svg>
