<svg width="36" height="36" viewBox="0 0 36 36" fill="none" xmlns="http://www.w3.org/2000/svg">
    <rect opacity=".17" width="36" height="36" rx="10" fill="#FF4757"/>
    <path d="M10.5 20.5V22c0 .933 0 1.4.182 1.756.16.314.414.57.728.73.356.18.822.18 1.754.18H25.5m-15-4.166v-8.333m0 8.333 3.211-2.676.003-.002c.58-.484.872-.726 1.187-.825a1.667 1.667 0 0 1 1.135.052c.306.127.574.395 1.11.93l.006.006c.544.545.817.818 1.128.944.368.15.777.163 1.154.038.32-.106.611-.36 1.195-.871l4.871-4.263" stroke="#FF4757" stroke-width="2" stroke-linecap="round" stroke-linejoin="round"/>
</svg>
