<svg width="36" height="36" viewBox="0 0 36 36" fill="none" xmlns="http://www.w3.org/2000/svg">
    <rect opacity=".17" width="36" height="36" rx="10" transform="translate(.002) skewX(-.002)" fill="#FF4757"/>
    <path d="m21 15-4 4-2-2m11-.835c0 6.568-4.968 9.513-7.074 10.466l-.003.002c-.221.1-.332.15-.584.193-.16.028-.517.028-.677 0a2.011 2.011 0 0 1-.588-.195c-2.106-.953-7.074-3.898-7.073-10.466V12.2c0-1.12 0-1.68.218-2.108.192-.377.498-.682.874-.874C11.52 9 12.08 9 13.2 9h9.6c1.12 0 1.68 0 2.107.218.377.192.683.497.875.874.218.427.218.987.218 2.105v3.968Z" stroke="#FF4757" stroke-width="2" stroke-linecap="round" stroke-linejoin="round"/>
</svg>
